# xmcd
#
# Track frame offsets: 
#        150
#        17038
#        30906
#        49925
#        73355
#        98586
#        112338
#        138876
#        168397
#        198009
#        216642
#        239160
#        255072
#        282228
#
# Disc length: 3956 seconds
#
# Revision: 0
# Processed by: cddbd v1.5.2PL0 Copyright (c) Steve Scherf et al.
# Submitted via: ExactAudioCopyFreeDBPlugin 1.0
#
DISCID=cb0f720e
DTITLE=Various Artist - 100 Años De Musica. Fiebre Del Sábado
DYEAR=1999
DGENRE=Disco
TTITLE0=Village People - In The Navy
TTITLE1=Michael Zager Band - Let's All Chant
TTITLE2=Baccara - Yes Sir I Can Boogie
TTITLE3=Donna Summer - Funstreet
TTITLE4=Silver Pozzoli - Around My Dream
TTITLE5=Anita Ward - Ring My Bell
TTITLE6=Dee D. Jackson - Automatic Lover
TTITLE7=Sugarhill Gang - Rapper's Delight
TTITLE8=Patrick Cowley and Sylvester - Do You Wanna Funk
TTITLE9=Sam Hook and The Disco Cats - Sexy Eyes
TTITLE10=Evelyn Thomas - Reflections
TTITLE11=Baccara - Sorry I'm A Lady
TTITLE12=Earlene Bentley and Sylvester - Stargazing
TTITLE13=M - Pop Muzik
EXTD=
EXTT0=
EXTT1=
EXTT2=
EXTT3=
EXTT4=
EXTT5=
EXTT6=
EXTT7=
EXTT8=
EXTT9=
EXTT10=
EXTT11=
EXTT12=
EXTT13=
PLAYORDER=
